<svg width="124" height="20" viewBox="0 0 124 20" fill="none" xmlns="http://www.w3.org/2000/svg">
<path d="M55.6594 9.71828L60.8871 2.76056C61.3271 2.17491 62.2059 2.17491 62.6459 2.76056L67.8736 9.71828" stroke="#684F3F" stroke-width="3" stroke-linecap="round" stroke-linejoin="round"/>
<path d="M1.89282 9.71828L7.12047 2.76056C7.5605 2.17491 8.4393 2.17491 8.87933 2.76056L14.107 9.71828" stroke="#684F3F" stroke-width="3" stroke-linecap="round" stroke-linejoin="round"/>
<path d="M57.0465 6.88324L57.0465 1.59003" stroke="#684F3F" stroke-width="2.5" stroke-linecap="round" stroke-linejoin="round"/>
<path d="M3.27988 6.88324L3.27988 1.59003" stroke="#684F3F" stroke-width="2.5" stroke-linecap="round" stroke-linejoin="round"/>
<path d="M1.9147 17.7909C1.67721 17.775 1.43973 17.7433 1.20225 17.6957C0.979612 17.6323 0.779237 17.553 0.601125 17.4578C0.423014 17.3468 0.274588 17.1961 0.155847 17.0058C0.0519491 16.8155 0 16.5618 0 16.2446C0 15.9274 0.0964769 15.6498 0.289431 15.4119C0.408172 15.285 0.556598 15.1899 0.734709 15.1264C0.91282 15.063 1.08351 15.0154 1.24678 14.9837C1.41005 14.952 1.55105 14.9361 1.66979 14.9361C1.80338 14.9361 1.87759 14.9361 1.89243 14.9361L14.0708 14.9599C14.4567 14.9599 14.8055 14.9678 15.1172 14.9837C15.4437 14.9837 15.7332 15.0947 15.9855 15.3168C16.2972 15.6181 16.453 15.9591 16.453 16.3397C16.453 16.5776 16.3862 16.7997 16.2527 17.0058C16.1191 17.1961 15.941 17.331 15.7183 17.4103C15.4215 17.5371 15.1098 17.6244 14.7832 17.6719C14.4715 17.7195 14.1598 17.7512 13.8482 17.7671C12.7646 17.8147 11.696 17.8305 10.6421 17.8147C9.58832 17.7988 8.56418 17.7909 7.56973 17.7909C6.50106 17.7909 5.45466 17.7988 4.43052 17.8147C3.42122 17.8305 2.58261 17.8226 1.9147 17.7909Z" fill="#684F3F"/>
<path d="M30.7753 16.5062C30.7753 16.9027 30.7605 17.2199 30.7308 17.4578C30.716 17.6957 30.6492 17.9971 30.5304 18.3619C30.4562 18.5997 30.3449 18.798 30.1965 18.9566C30.048 19.1152 29.8106 19.1945 29.484 19.1945C29.395 19.1945 29.2836 19.1786 29.1501 19.1469C29.0165 19.1311 28.9126 19.0914 28.8384 19.028C28.6899 18.9328 28.5712 18.7821 28.4821 18.576C28.4079 18.3539 28.3486 18.124 28.304 17.8861C28.2595 17.6482 28.2298 17.4182 28.215 17.1961C28.215 16.9741 28.215 16.7997 28.215 16.6728V10.9632L27.2354 10.9394C27.1018 10.9394 26.9534 10.9236 26.7901 10.8918C26.6417 10.8443 26.4932 10.7808 26.3448 10.7015C26.2112 10.6064 26.0925 10.4874 25.9886 10.3447C25.8847 10.1861 25.8253 9.98783 25.8105 9.74993C25.7808 9.46445 25.7956 9.16311 25.855 8.84591C25.9292 8.52872 26.137 8.28289 26.4784 8.10843C26.612 8.02913 26.7604 7.98155 26.9237 7.96569C27.1018 7.93397 27.2651 7.92604 27.4135 7.9419L28.215 7.91811V2.42266C28.215 2.21648 28.215 2.0103 28.215 1.80412C28.215 1.58208 28.2372 1.36797 28.2818 1.1618C28.3115 1.0825 28.3337 1.01113 28.3486 0.947686C28.3782 0.884247 28.4079 0.812877 28.4376 0.733578C28.5267 0.574979 28.6157 0.45603 28.7048 0.376731C28.7938 0.281571 28.92 0.202272 29.0833 0.138832C29.1575 0.107113 29.2317 0.0912533 29.3059 0.0912533C29.395 0.0753927 29.4766 0.0674624 29.5508 0.0674624C29.8031 0.0674624 30.0035 0.130902 30.1519 0.257781C30.3152 0.384661 30.4562 0.55912 30.575 0.781158C30.6343 0.876317 30.6714 1.01113 30.6863 1.18559C30.716 1.36004 30.7382 1.54243 30.7531 1.73275C30.7679 1.90721 30.7753 2.06581 30.7753 2.20855C30.7753 2.33543 30.7753 2.41473 30.7753 2.44645V16.5062ZM34.3153 18.5284C34.2262 18.7346 34.0852 18.909 33.8923 19.0518C33.729 19.1628 33.5806 19.2262 33.447 19.2421C33.3283 19.2738 33.1724 19.2659 32.9795 19.2183C32.7568 19.1707 32.5713 19.0676 32.4229 18.909C32.2893 18.7663 32.1854 18.5997 32.1112 18.4094C32.0369 18.2191 31.985 18.0129 31.9553 17.7909C31.9256 17.5689 31.9108 17.3547 31.9108 17.1486V2.68435C31.9108 2.50989 31.9108 2.31164 31.9108 2.0896C31.9108 1.8517 31.9256 1.62966 31.9553 1.42348C31.985 1.20145 32.0221 0.995267 32.0666 0.804948C32.126 0.614629 32.2076 0.46396 32.3115 0.352941C32.4748 0.194342 32.6232 0.0991827 32.7568 0.0674624C32.9052 0.0198833 33.0834 -0.00390625 33.2911 -0.00390625C33.5435 -0.00390625 33.7587 0.0753932 33.9368 0.233992C34.1149 0.376731 34.2485 0.57498 34.3376 0.828737C34.4711 1.1618 34.5453 1.50278 34.5602 1.8517C34.575 2.20062 34.5899 2.55747 34.6047 2.92224V3.04119C34.6344 4.24654 34.6418 5.48362 34.627 6.75241C34.6121 8.00534 34.6047 9.19483 34.6047 10.3209V16.2683C34.6047 16.6807 34.5899 17.0772 34.5602 17.4578C34.5453 17.8385 34.4637 18.1953 34.3153 18.5284ZM27.1908 3.58836C27.1612 3.6518 27.0795 3.70731 26.9459 3.75489C26.6936 3.88177 26.4561 3.92935 26.2335 3.89763C26.0109 3.86591 25.7659 3.88177 25.4988 3.94521C25.5285 4.16725 25.5433 4.37342 25.5433 4.56374C25.5582 4.7382 25.5656 4.88887 25.5656 5.01575V15.2216C25.5656 15.2057 25.6175 15.2057 25.7214 15.2216C25.8253 15.2375 25.9366 15.2612 26.0554 15.293C26.189 15.3088 26.3077 15.3326 26.4116 15.3643C26.5303 15.3961 26.6046 15.4119 26.6342 15.4119C26.9608 15.4754 27.2057 15.5784 27.369 15.7212C27.5322 15.8481 27.5916 16.1415 27.5471 16.6014C27.5174 16.982 27.4506 17.2675 27.3467 17.4578C27.2428 17.6323 27.1018 17.7512 26.9237 17.8147C26.7604 17.8623 26.5674 17.8861 26.3448 17.8861C26.137 17.8702 25.8995 17.8623 25.6324 17.8623C25.291 17.8781 24.9496 17.8861 24.6082 17.8861C24.2668 17.8702 23.9329 17.8623 23.6063 17.8623C23.3392 17.8623 23.1091 17.8623 22.9162 17.8623C22.7381 17.8623 22.5599 17.8623 22.3818 17.8623C22.2037 17.8623 22.0182 17.8702 21.8252 17.8861C21.6471 17.8861 21.4319 17.8861 21.1796 17.8861C20.8234 17.8861 20.4671 17.8861 20.1109 17.8861C19.7695 17.8861 19.4207 17.8781 19.0645 17.8623C18.9012 17.8623 18.7157 17.8464 18.5079 17.8147C18.3001 17.783 18.1072 17.7275 17.9291 17.6482C17.7509 17.553 17.5951 17.4261 17.4615 17.2675C17.3279 17.1089 17.2463 16.9027 17.2166 16.649C17.1869 16.2842 17.2315 16.0146 17.3502 15.8401C17.4838 15.6498 17.6545 15.5229 17.8623 15.4595C18.0849 15.3802 18.315 15.3405 18.5524 15.3405C18.8048 15.3247 19.0274 15.3009 19.2204 15.2692C19.2204 15.1264 19.2129 14.9123 19.1981 14.6268C19.1981 14.3414 19.1981 14.048 19.1981 13.7466C19.1981 13.4294 19.1981 13.136 19.1981 12.8664C19.1981 12.5809 19.1981 12.3668 19.1981 12.2241V5.34881C19.1981 5.30123 19.1833 5.14263 19.1536 4.87301C19.1387 4.60339 19.1387 4.29412 19.1536 3.94521C18.9458 3.92935 18.7528 3.92142 18.5747 3.92142C18.4114 3.92142 18.2482 3.89763 18.0849 3.85005C17.9365 3.80247 17.7955 3.72317 17.6619 3.61215C17.5431 3.48527 17.4318 3.30288 17.3279 3.06498C17.1647 2.70021 17.1572 2.36715 17.3057 2.06581C17.4541 1.74861 17.6767 1.52657 17.9736 1.39969C18.2853 1.27281 18.5895 1.19352 18.8864 1.1618C19.1981 1.13008 19.5172 1.11422 19.8437 1.11422C20.3781 1.11422 20.8827 1.11422 21.3577 1.11422C21.8327 1.11422 22.2928 1.12215 22.7381 1.13801C23.1982 1.13801 23.6657 1.13801 24.1407 1.13801C24.6156 1.13801 25.1277 1.13801 25.6769 1.13801C25.9292 1.13801 26.2112 1.17766 26.5229 1.25695C26.8346 1.32039 27.0869 1.47899 27.2799 1.73275C27.3689 1.85963 27.4357 2.0103 27.4803 2.18476C27.5396 2.34336 27.5619 2.50989 27.5471 2.68435C27.5471 2.8588 27.5174 3.03326 27.458 3.20772C27.3986 3.36632 27.3096 3.4932 27.1908 3.58836ZM21.9366 3.94521C21.8475 3.92935 21.7881 3.96107 21.7584 4.04037C21.7436 4.10381 21.7362 4.19103 21.7362 4.30205C21.7213 4.46065 21.7065 4.6589 21.6917 4.8968C21.6917 5.1347 21.6991 5.36467 21.7139 5.58671L21.7362 14.7696C21.7362 14.8172 21.7436 14.9044 21.7584 15.0313C21.7881 15.1423 21.8623 15.2057 21.9811 15.2216H22.983V6.03871C22.983 6.03871 22.983 5.96734 22.983 5.8246C22.983 5.66601 22.983 5.48362 22.983 5.27744C22.983 5.07126 22.9755 4.87301 22.9607 4.68269C22.9607 4.47651 22.9533 4.32584 22.9384 4.23068C22.9384 4.18311 22.931 4.13553 22.9162 4.08795C22.9162 4.02451 22.8716 3.97693 22.7826 3.94521H21.9366Z" fill="#684F3F"/>
<path d="M40.8849 0.210202C41.0778 0.210202 41.2634 0.218132 41.4415 0.233992C41.6196 0.249852 41.7977 0.273642 41.9758 0.305362C42.5398 0.400521 43.0371 0.678069 43.4675 1.13801C43.8237 1.55036 44.1131 2.02616 44.3358 2.5654C44.5733 3.08877 44.7588 3.64387 44.8924 4.23068C45.026 4.8175 45.1224 5.42018 45.1818 6.03871C45.2412 6.64139 45.2857 7.22821 45.3154 7.79916C45.3451 8.52872 45.3525 9.25827 45.3377 9.98783C45.3228 10.7174 45.2783 11.439 45.2041 12.1527C45.1299 12.8981 45.0185 13.6515 44.8701 14.4127C44.7365 15.1582 44.4842 15.8322 44.1131 16.4349C43.8014 16.9424 43.4155 17.3627 42.9554 17.6957C42.4953 18.0129 42.0129 18.227 41.5083 18.3381C41.0481 18.4332 40.5806 18.4491 40.1056 18.3856C39.6307 18.3222 39.178 18.1557 38.7475 17.8861C38.3468 17.6323 38.0054 17.3151 37.7234 16.9345C37.4562 16.5538 37.2188 16.1097 37.011 15.6022C36.7141 14.841 36.5434 14.0559 36.4989 13.247C36.4395 12.5809 36.395 11.9148 36.3653 11.2487C36.3505 10.5826 36.343 9.91646 36.343 9.25034C36.343 8.36219 36.3876 7.47403 36.4766 6.58588C36.5063 6.2211 36.536 5.86425 36.5657 5.51534C36.5954 5.15056 36.6399 4.79371 36.6993 4.44479C36.7586 4.15932 36.8106 3.8897 36.8551 3.63594C36.8996 3.38218 36.9813 3.12049 37.1 2.85087C37.2188 2.58126 37.3449 2.3275 37.4785 2.0896C37.6269 1.8517 37.7976 1.63759 37.9906 1.44727C38.3171 1.09836 38.6807 0.828738 39.0815 0.63842C39.4822 0.448101 39.8978 0.321221 40.3283 0.257781C40.4173 0.241922 40.5064 0.233992 40.5954 0.233992C40.6993 0.233992 40.7958 0.226062 40.8849 0.210202ZM51.6829 17.2437C51.6532 17.434 51.6309 17.6244 51.6161 17.8147C51.6012 17.9891 51.5641 18.1715 51.5048 18.3619C51.4751 18.4253 51.4528 18.4808 51.438 18.5284C51.4231 18.576 51.4009 18.6315 51.3712 18.6949C51.2673 18.9169 51.1337 19.0914 50.9704 19.2183C50.629 19.4403 50.2506 19.4958 49.835 19.3848C49.5975 19.3372 49.4045 19.2421 49.2561 19.0993C49.1225 18.9725 49.0186 18.8059 48.9444 18.5998C48.885 18.4094 48.8331 18.2191 48.7886 18.0288C48.7589 17.8385 48.744 17.6719 48.744 17.5292C48.744 17.3865 48.744 17.3072 48.744 17.2913V2.89845C48.744 2.70814 48.744 2.50196 48.744 2.27992C48.744 2.05788 48.7589 1.83584 48.7886 1.6138C48.8182 1.39176 48.8628 1.18559 48.9221 0.995267C48.9815 0.804948 49.0632 0.654279 49.1671 0.54326C49.3303 0.368801 49.501 0.265711 49.6791 0.233992C49.8572 0.186412 50.0502 0.162622 50.258 0.162622C50.5103 0.162622 50.7404 0.241921 50.9482 0.40052C51.1708 0.543259 51.3266 0.749438 51.4157 1.01906C51.5493 1.35211 51.6235 1.70103 51.6383 2.06581C51.6532 2.43059 51.668 2.79537 51.6829 3.16014V3.27909C51.7126 4.5003 51.72 5.75323 51.7051 7.03789C51.6903 8.32254 51.6829 9.53582 51.6829 10.6777V16.3873C51.6829 16.53 51.6829 16.6728 51.6829 16.8155C51.6977 16.9583 51.6977 17.101 51.6829 17.2437ZM40.8181 15.174C41.1001 15.174 41.3747 15.0789 41.6418 14.8885C41.8942 14.6982 42.0723 14.4445 42.1762 14.1273C42.2801 13.8101 42.3691 13.4611 42.4433 13.0805C42.5621 12.351 42.6289 11.5738 42.6437 10.7491C42.6586 9.92439 42.6511 9.13139 42.6215 8.37012C42.6215 8.06878 42.614 7.75158 42.5992 7.41852C42.5844 7.06961 42.5547 6.72862 42.5101 6.39556C42.4805 6.0625 42.4285 5.7453 42.3543 5.44397C42.2801 5.12677 42.1762 4.84922 42.0426 4.61132C41.8942 4.3417 41.7161 4.13553 41.5083 3.99279C41.3005 3.85005 41.0778 3.79454 40.8403 3.82626C40.588 3.85798 40.358 3.95314 40.1502 4.11174C39.9424 4.27033 39.7717 4.50823 39.6381 4.82543L39.4377 5.32502C39.3487 5.62636 39.2819 5.94355 39.2374 6.27661C39.1928 6.59381 39.1557 6.91101 39.126 7.2282C39.0963 7.5454 39.0741 7.87053 39.0592 8.20359C39.0444 8.53665 39.037 8.86177 39.037 9.17897C39.0518 9.49617 39.0444 9.80544 39.0147 10.1068C38.9999 10.4081 39.0073 10.7174 39.037 11.0346C39.0667 11.4469 39.1038 11.891 39.1483 12.3668C39.2077 12.8426 39.2967 13.2946 39.4155 13.7228C39.5342 14.1352 39.7049 14.4841 39.9275 14.7696C40.1502 15.0392 40.447 15.174 40.8181 15.174Z" fill="#684F3F"/>
<path d="M55.4872 17.7909C55.2497 17.775 55.0122 17.7433 54.7748 17.6957C54.5521 17.6323 54.3518 17.553 54.1736 17.4578C53.9955 17.3468 53.8471 17.1961 53.7284 17.0058C53.6245 16.8155 53.5725 16.5618 53.5725 16.2446C53.5725 15.9274 53.669 15.6498 53.8619 15.4119C53.9807 15.285 54.1291 15.1899 54.3072 15.1264C54.4853 15.063 54.656 15.0154 54.8193 14.9837C54.9826 14.952 55.1236 14.9361 55.2423 14.9361C55.3759 14.9361 55.4501 14.9361 55.465 14.9361L67.6433 14.9599C68.0292 14.9599 68.378 14.9678 68.6897 14.9837C69.0163 14.9837 69.3057 15.0947 69.558 15.3168C69.8697 15.6181 70.0256 15.9591 70.0256 16.3397C70.0256 16.5776 69.9588 16.7997 69.8252 17.0058C69.6916 17.1961 69.5135 17.331 69.2908 17.4103C68.994 17.5371 68.6823 17.6244 68.3558 17.6719C68.0441 17.7195 67.7324 17.7512 67.4207 17.7671C66.3372 17.8147 65.2685 17.8305 64.2147 17.8147C63.1608 17.7988 62.1367 17.7909 61.1423 17.7909C60.0736 17.7909 59.0272 17.7988 58.003 17.8147C56.9937 17.8305 56.1551 17.8226 55.4872 17.7909Z" fill="#684F3F"/>
<path d="M74.2178 7.79916H76.5777C76.741 7.79916 76.8969 7.81502 77.0453 7.84674C77.2086 7.87846 77.357 7.93397 77.4906 8.01327C77.6984 8.15601 77.8319 8.36219 77.8913 8.63181C77.9507 8.90142 77.9655 9.16311 77.9358 9.41687C77.9358 9.52789 77.9284 9.64684 77.9136 9.77372C77.9136 9.9006 77.8765 10.0116 77.8023 10.1068C77.639 10.3447 77.4683 10.4953 77.2902 10.5588C77.1269 10.6064 76.9488 10.6302 76.7559 10.6302H74.24C74.24 10.9315 74.24 11.2328 74.24 11.5342C74.24 11.8196 74.24 12.0813 74.24 12.3192C74.24 12.5413 74.2326 12.7237 74.2178 12.8664C74.2178 13.0091 74.2178 13.0805 74.2178 13.0805V13.9131C74.2178 14.1352 74.2326 14.3255 74.2623 14.4841C74.292 14.6427 74.3217 14.7299 74.3514 14.7458C74.4404 14.8092 74.5592 14.8568 74.7076 14.8885C74.856 14.9203 75.0638 14.9361 75.331 14.9361C75.4349 14.9361 75.6352 14.9361 75.9321 14.9361C76.2289 14.9361 76.5332 14.9361 76.8449 14.9361C77.1566 14.9361 77.4312 14.9361 77.6687 14.9361C77.921 14.9203 78.062 14.9123 78.0917 14.9123H78.4257C78.6483 14.9123 78.8338 14.9203 78.9823 14.9361C79.1307 14.952 79.3162 14.9996 79.5388 15.0789C79.5982 15.0947 79.6724 15.1344 79.7615 15.1978C79.9396 15.3405 80.0658 15.5309 80.14 15.7688C80.229 15.9908 80.2661 16.2208 80.2513 16.4587C80.2364 16.6966 80.1771 16.9265 80.0732 17.1486C79.9693 17.3547 79.8209 17.5133 79.6279 17.6244C79.3311 17.8147 79.049 17.9416 78.7819 18.005C78.5147 18.0684 78.2327 18.1002 77.9358 18.1002H77.0676C76.6817 18.116 76.3328 18.116 76.0211 18.1002C75.7243 18.0843 75.3829 18.0843 74.997 18.1002H74.6408C74.4181 18.1002 74.1732 18.0922 73.9061 18.0764C73.6389 18.0605 73.3792 18.0209 73.1268 17.9574C72.8745 17.894 72.637 17.8068 72.4144 17.6957C72.2066 17.5689 72.0285 17.4103 71.8801 17.2199C71.7465 17.0455 71.6426 16.8076 71.5684 16.5062C71.4942 16.2049 71.4422 15.9115 71.4125 15.626C71.3977 15.3247 71.3903 15.063 71.3903 14.841C71.3903 14.6189 71.3903 14.5 71.3903 14.4841V3.18393C71.3903 3.16807 71.3903 3.10463 71.3903 2.99361C71.3903 2.86673 71.3977 2.73192 71.4125 2.58919C71.4274 2.43059 71.4422 2.27992 71.4571 2.13718C71.4867 1.97858 71.5238 1.85963 71.5684 1.78033C71.6871 1.55829 71.8059 1.39969 71.9246 1.30454C72.0582 1.19352 72.2289 1.12215 72.4367 1.09043C72.496 1.07457 72.5628 1.06664 72.637 1.06664C72.7261 1.06664 72.8077 1.05871 72.8819 1.04285C72.971 1.04285 73.0675 1.03492 73.1714 1.01906H77.4238C77.498 1.01906 77.5722 1.02699 77.6464 1.04285C77.7206 1.04285 77.7874 1.03492 77.8468 1.01906H77.8913C78.0249 1.01906 78.1511 1.02699 78.2698 1.04285C78.4034 1.05871 78.537 1.09043 78.6705 1.13801C78.7893 1.16973 78.908 1.20938 79.0268 1.25695C79.1604 1.28867 79.2717 1.36797 79.3607 1.49485C79.5389 1.71689 79.6427 1.97065 79.6724 2.25613C79.7021 2.38301 79.717 2.50196 79.717 2.61298C79.7318 2.70814 79.7244 2.81915 79.6947 2.94603C79.665 3.26323 79.5537 3.54871 79.3607 3.80247C79.1678 4.04037 78.9155 4.15932 78.6038 4.15932H74.2178V7.79916ZM79.7837 10.4874C79.6502 10.4874 79.5092 10.4716 79.3607 10.4398C79.2272 10.3923 79.0936 10.3209 78.96 10.2257C78.8412 10.1306 78.7374 10.0037 78.6483 9.84509C78.5592 9.68649 78.5073 9.48824 78.4924 9.25034C78.4628 8.96486 78.4776 8.67146 78.537 8.37012C78.6112 8.06878 78.819 7.83088 79.1604 7.65642C79.2939 7.57712 79.4572 7.52954 79.6502 7.51368C79.858 7.49782 80.0361 7.49782 80.1845 7.51368H81.0305V2.42266C81.0305 2.21648 81.0305 2.0103 81.0305 1.80412C81.0305 1.58208 81.0528 1.36797 81.0973 1.1618C81.127 1.0825 81.1493 1.01113 81.1641 0.947686C81.1938 0.884247 81.2235 0.812877 81.2532 0.733578C81.3422 0.574979 81.4313 0.45603 81.5203 0.376731C81.6094 0.281571 81.7355 0.202272 81.8988 0.138832C81.973 0.107113 82.0472 0.0912533 82.1215 0.0912533C82.2105 0.0753927 82.2922 0.0674624 82.3664 0.0674624C82.8562 0.0674624 83.2272 0.305361 83.4796 0.781158C83.5389 0.876317 83.5835 1.01113 83.6131 1.18559C83.6428 1.36004 83.6651 1.54243 83.6799 1.73275C83.6948 1.90721 83.7022 2.06581 83.7022 2.20855C83.7022 2.33543 83.7022 2.41473 83.7022 2.44645V16.5062C83.7022 16.9027 83.6874 17.2199 83.6577 17.4578C83.628 17.6957 83.5538 17.9971 83.435 18.3619C83.3608 18.5997 83.2346 18.798 83.0565 18.9566C82.8784 19.1152 82.6261 19.1945 82.2996 19.1945C82.2105 19.1945 82.0992 19.1786 81.9656 19.1469C81.832 19.1311 81.7281 19.0914 81.6539 19.028C81.5055 18.9328 81.3867 18.7821 81.2977 18.576C81.2235 18.3539 81.1641 18.124 81.1196 17.8861C81.0751 17.6482 81.0454 17.4182 81.0305 17.1961C81.0305 16.9741 81.0305 16.7997 81.0305 16.6728V10.5588L79.7837 10.4874ZM87.732 3.04119C87.7617 4.24654 87.7691 5.48362 87.7542 6.75241C87.7394 8.00534 87.732 9.19483 87.732 10.3209V16.2683C87.732 16.6807 87.7171 17.0772 87.6874 17.4578C87.6726 17.8385 87.591 18.1953 87.4425 18.5284C87.3535 18.7346 87.2125 18.909 87.0195 19.0518C86.8563 19.1628 86.6781 19.2262 86.4852 19.2421C86.2922 19.2738 86.0993 19.2659 85.9063 19.2183C85.6837 19.1707 85.5056 19.0676 85.372 18.909C85.2384 18.7663 85.1345 18.5997 85.0603 18.4094C85.0009 18.2191 84.9638 18.0129 84.949 17.7909C84.9341 17.5689 84.9267 17.3547 84.9267 17.1486V2.68435C84.9267 2.50989 84.9267 2.31164 84.9267 2.0896C84.9267 1.8517 84.9416 1.62966 84.9712 1.42348C85.0009 1.20145 85.038 0.995267 85.0826 0.804948C85.1419 0.614629 85.2236 0.46396 85.3275 0.352941C85.4907 0.194342 85.6466 0.0991827 85.795 0.0674624C85.9434 0.0198833 86.1215 -0.00390625 86.3293 -0.00390625C86.5817 -0.00390625 86.8117 0.0753932 87.0195 0.233992C87.2273 0.376731 87.3757 0.57498 87.4648 0.828737C87.5984 1.1618 87.6652 1.52657 87.6652 1.92307C87.68 2.31957 87.7023 2.69228 87.732 3.04119Z" fill="#684F3F"/>
<path d="M94.4574 0.210202C94.6504 0.210202 94.8359 0.218132 95.014 0.233992C95.1921 0.249852 95.3702 0.273642 95.5483 0.305362C96.1124 0.400521 96.6096 0.678069 97.04 1.13801C97.3962 1.55036 97.6857 2.02616 97.9083 2.5654C98.1458 3.08877 98.3313 3.64387 98.4649 4.23068C98.5985 4.8175 98.695 5.42018 98.7543 6.03871C98.8137 6.64139 98.8582 7.22821 98.8879 7.79916C98.9176 8.52872 98.925 9.25827 98.9102 9.98783C98.8953 10.7174 98.8508 11.439 98.7766 12.1527C98.7024 12.8981 98.5911 13.6515 98.4426 14.4127C98.3091 15.1582 98.0567 15.8322 97.6857 16.4349C97.374 16.9424 96.9881 17.3627 96.5279 17.6957C96.0678 18.0129 95.5854 18.227 95.0808 18.3381C94.6207 18.4332 94.1531 18.4491 93.6782 18.3856C93.2032 18.3222 92.7505 18.1557 92.3201 17.8861C91.9193 17.6323 91.5779 17.3151 91.2959 16.9345C91.0288 16.5538 90.7913 16.1097 90.5835 15.6022C90.2866 14.841 90.1159 14.0559 90.0714 13.247C90.012 12.5809 89.9675 11.9148 89.9378 11.2487C89.923 10.5826 89.9156 9.91646 89.9156 9.25034C89.9156 8.36219 89.9601 7.47403 90.0491 6.58588C90.0788 6.2211 90.1085 5.86425 90.1382 5.51534C90.1679 5.15056 90.2124 4.79371 90.2718 4.44479C90.3312 4.15932 90.3831 3.8897 90.4276 3.63594C90.4722 3.38218 90.5538 3.12049 90.6725 2.85087C90.7913 2.58126 90.9174 2.3275 91.051 2.0896C91.1994 1.8517 91.3701 1.63759 91.5631 1.44727C91.8896 1.09836 92.2533 0.828738 92.654 0.63842C93.0548 0.448101 93.4704 0.321221 93.9008 0.257781C93.9899 0.241922 94.0789 0.233992 94.168 0.233992C94.2719 0.233992 94.3683 0.226062 94.4574 0.210202ZM105.255 17.2437C105.226 17.434 105.203 17.6244 105.189 17.8147C105.174 17.9891 105.137 18.1715 105.077 18.3619C105.048 18.4253 105.025 18.4808 105.01 18.5284C104.996 18.576 104.973 18.6315 104.944 18.6949C104.84 18.9169 104.706 19.0914 104.543 19.2183C104.202 19.4403 103.823 19.4958 103.407 19.3848C103.17 19.3372 102.977 19.2421 102.829 19.0993C102.695 18.9725 102.591 18.8059 102.517 18.5998C102.458 18.4094 102.406 18.2191 102.361 18.0288C102.331 17.8385 102.317 17.6719 102.317 17.5292C102.317 17.3865 102.317 17.3072 102.317 17.2913V2.89845C102.317 2.70814 102.317 2.50196 102.317 2.27992C102.317 2.05788 102.331 1.83584 102.361 1.6138C102.391 1.39176 102.435 1.18559 102.495 0.995267C102.554 0.804948 102.636 0.654279 102.74 0.54326C102.903 0.368801 103.074 0.265711 103.252 0.233992C103.43 0.186412 103.623 0.162622 103.83 0.162622C104.083 0.162622 104.313 0.241921 104.521 0.40052C104.743 0.543259 104.899 0.749438 104.988 1.01906C105.122 1.35211 105.196 1.70103 105.211 2.06581C105.226 2.43059 105.241 2.79537 105.255 3.16014V3.27909C105.285 4.5003 105.292 5.75323 105.278 7.03789C105.263 8.32254 105.255 9.53582 105.255 10.6777V16.3873C105.255 16.53 105.255 16.6728 105.255 16.8155C105.27 16.9583 105.27 17.101 105.255 17.2437ZM94.3906 15.174C94.6726 15.174 94.9472 15.0789 95.2144 14.8885C95.4667 14.6982 95.6448 14.4445 95.7487 14.1273C95.8526 13.8101 95.9417 13.4611 96.0159 13.0805C96.1346 12.351 96.2014 11.5738 96.2162 10.7491C96.2311 9.92439 96.2237 9.13139 96.194 8.37012C96.194 8.06878 96.1866 7.75158 96.1717 7.41852C96.1569 7.06961 96.1272 6.72862 96.0827 6.39556C96.053 6.0625 96.001 5.7453 95.9268 5.44397C95.8526 5.12677 95.7487 4.84922 95.6151 4.61132C95.4667 4.3417 95.2886 4.13553 95.0808 3.99279C94.873 3.85005 94.6504 3.79454 94.4129 3.82626C94.1605 3.85798 93.9305 3.95314 93.7227 4.11174C93.5149 4.27033 93.3442 4.50823 93.2106 4.82543L93.0102 5.32502C92.9212 5.62636 92.8544 5.94355 92.8099 6.27661C92.7653 6.59381 92.7282 6.91101 92.6985 7.2282C92.6689 7.5454 92.6466 7.87053 92.6318 8.20359C92.6169 8.53665 92.6095 8.86177 92.6095 9.17897C92.6243 9.49617 92.6169 9.80544 92.5872 10.1068C92.5724 10.4081 92.5798 10.7174 92.6095 11.0346C92.6392 11.4469 92.6763 11.891 92.7208 12.3668C92.7802 12.8426 92.8692 13.2946 92.988 13.7228C93.1067 14.1352 93.2774 14.4841 93.5 14.7696C93.7227 15.0392 94.0195 15.174 94.3906 15.174Z" fill="#684F3F"/>
<path d="M122.507 16.4349C122.507 16.4349 122.552 16.4507 122.641 16.4825C122.745 16.5142 122.856 16.5697 122.975 16.649C123.093 16.7124 123.205 16.8076 123.309 16.9345C123.413 17.0455 123.479 17.1803 123.509 17.3389C123.583 17.9416 123.487 18.4094 123.22 18.7425C123.041 18.9645 122.849 19.0993 122.641 19.1469C122.433 19.1945 122.322 19.2183 122.307 19.2183H110.707C110.099 19.2183 109.624 19.1152 109.282 18.909C108.941 18.7187 108.77 18.4412 108.77 18.0764V15.2454C108.77 15.1502 108.763 15.0313 108.748 14.8885C108.748 14.7458 108.748 14.5951 108.748 14.4365C108.748 14.2621 108.748 14.1035 108.748 13.9607C108.763 13.818 108.77 13.699 108.77 13.6039C108.8 13.2708 108.948 13.0012 109.216 12.795C109.483 12.5888 109.787 12.4858 110.128 12.4858C110.203 12.4858 110.292 12.4937 110.396 12.5095C110.514 12.5095 110.611 12.5254 110.685 12.5571C110.878 12.6206 111.034 12.7316 111.153 12.8902C111.271 13.0329 111.36 13.1995 111.42 13.3898C111.479 13.5801 111.516 13.7863 111.531 14.0083C111.546 14.2145 111.561 14.4048 111.576 14.5793C111.576 14.6427 111.576 14.7696 111.576 14.9599C111.576 15.1344 111.576 15.3247 111.576 15.5309C111.576 15.7212 111.576 15.9036 111.576 16.078C111.576 16.2366 111.576 16.3397 111.576 16.3873C111.62 16.4032 111.739 16.4269 111.932 16.4587C112.14 16.4745 112.518 16.4825 113.067 16.4825C113.542 16.4825 113.965 16.4745 114.336 16.4587C114.707 16.4428 114.9 16.4349 114.915 16.4349H122.507ZM107.479 10.9394C107.271 10.8443 107.123 10.6619 107.034 10.3923C106.915 10.0751 106.893 9.75786 106.967 9.44066C107.056 9.12346 107.19 8.82212 107.368 8.53665C107.546 8.25117 107.746 7.98155 107.969 7.72779C108.206 7.47403 108.407 7.23613 108.57 7.0141C108.822 6.68104 109.067 6.34798 109.305 6.01492C109.542 5.68187 109.787 5.34088 110.039 4.99196C110.217 4.72234 110.403 4.40514 110.596 4.04037C110.789 3.67559 110.9 3.31874 110.93 2.96982C110.93 2.87466 110.937 2.75571 110.952 2.61298C110.967 2.45438 110.974 2.29578 110.974 2.13718C110.989 1.96272 111.004 1.80412 111.019 1.66138C111.034 1.51864 111.056 1.39969 111.086 1.30454C111.175 0.987337 111.316 0.773228 111.509 0.662209C111.717 0.53533 112.028 0.47189 112.444 0.47189C112.681 0.47189 112.949 0.51947 113.245 0.614629C113.542 0.693928 113.743 0.860457 113.846 1.11422C113.95 1.39969 113.98 1.73275 113.936 2.11339C113.906 2.47817 113.936 2.81122 114.025 3.11256C114.099 3.35046 114.21 3.59629 114.359 3.85005C114.507 4.10381 114.663 4.35756 114.826 4.61132C115.108 5.03954 115.39 5.50741 115.672 6.01492C115.954 6.50658 116.214 6.92687 116.451 7.27578C116.689 7.60884 116.919 7.95776 117.142 8.32254C117.364 8.67146 117.513 9.05209 117.587 9.46445C117.661 9.81337 117.624 10.1068 117.475 10.3447C117.342 10.5667 117.156 10.7332 116.919 10.8443C116.681 10.9394 116.422 10.9632 116.14 10.9156C115.858 10.8522 115.613 10.7095 115.405 10.4874C114.856 9.88474 114.359 9.24241 113.913 8.56044C113.468 7.8626 113.008 7.18062 112.533 6.51451C112.533 6.51451 112.466 6.59381 112.333 6.75241C112.199 6.91101 112.036 7.11719 111.843 7.37094C111.65 7.6247 111.435 7.90225 111.197 8.20359C110.96 8.50493 110.737 8.79041 110.529 9.06002C110.321 9.32964 110.136 9.56754 109.973 9.77372C109.824 9.96404 109.735 10.083 109.705 10.1306C109.542 10.3367 109.357 10.5191 109.149 10.6777C108.941 10.8363 108.711 10.9474 108.459 11.0108C108.295 11.0425 108.125 11.0584 107.947 11.0584C107.783 11.0584 107.627 11.0187 107.479 10.9394ZM122.596 0.709788C122.641 0.820808 122.678 0.987337 122.708 1.20938C122.737 1.43141 122.759 1.66138 122.774 1.89928C122.789 2.12132 122.797 2.3275 122.797 2.51782C122.797 2.70814 122.797 2.81915 122.797 2.85087V11.0584C122.797 11.0742 122.789 11.1377 122.774 11.2487C122.759 11.3438 122.722 11.4628 122.663 11.6055C122.618 11.7483 122.544 11.891 122.44 12.0338C122.351 12.1765 122.233 12.2954 122.084 12.3906C121.876 12.5333 121.661 12.6047 121.438 12.6047C121.142 12.6047 120.882 12.5096 120.659 12.3192C120.481 12.2082 120.348 12.0496 120.258 11.8434C120.155 11.6531 120.088 11.4628 120.058 11.2725C120.028 11.0822 120.006 10.8998 119.991 10.7253V9.32171H119.257C118.915 9.32171 118.559 9.29792 118.188 9.25034C117.832 9.1869 117.557 8.99658 117.364 8.67939C117.26 8.50493 117.208 8.29875 117.208 8.06085C117.223 7.80709 117.245 7.59298 117.275 7.41852C117.32 7.2282 117.409 7.06961 117.542 6.94273C117.676 6.81585 117.899 6.71276 118.21 6.63346C118.27 6.6176 118.381 6.60967 118.544 6.60967C118.722 6.59381 118.9 6.57795 119.078 6.56209C119.271 6.54623 119.45 6.5383 119.613 6.5383C119.791 6.52244 119.917 6.51451 119.991 6.51451V4.96817C119.769 4.96817 119.516 4.9761 119.234 4.99196C118.967 4.99196 118.707 4.98403 118.455 4.96817C118.218 4.93645 117.995 4.88887 117.787 4.82543C117.594 4.76199 117.453 4.65097 117.364 4.49237C117.32 4.41307 117.283 4.30998 117.253 4.18311C117.238 4.05623 117.223 3.92935 117.208 3.80247C117.208 3.65973 117.216 3.52492 117.231 3.39804C117.245 3.27116 117.26 3.16014 117.275 3.06498C117.32 2.89052 117.409 2.73986 117.542 2.61298C117.676 2.4861 117.899 2.38301 118.21 2.30371C118.255 2.28785 118.344 2.27992 118.477 2.27992C118.626 2.26406 118.789 2.25613 118.967 2.25613C119.145 2.24027 119.323 2.23234 119.502 2.23234C119.694 2.21648 119.858 2.20855 119.991 2.20855C119.976 2.06581 119.976 1.90721 119.991 1.73275C120.006 1.55829 120.028 1.40762 120.058 1.28074C120.103 1.15387 120.14 1.02699 120.169 0.900107C120.199 0.773228 120.266 0.646349 120.37 0.519469C120.503 0.36087 120.681 0.249851 120.904 0.186411C121.142 0.107112 121.394 0.0833225 121.661 0.115043C122.136 0.194342 122.448 0.392591 122.596 0.709788Z" fill="#684F3F"/>
</svg>
