<svg width="124" height="20" viewBox="0 0 124 20" fill="none" xmlns="http://www.w3.org/2000/svg">
<path fill-rule="evenodd" clip-rule="evenodd" d="M66.6744 11.015L61.7666 4.48294L56.8587 11.015C56.3611 11.6773 55.4208 11.8108 54.7585 11.3132C54.0962 10.8156 53.9627 9.87528 54.4603 9.21297L55.8048 7.42345C55.7994 7.37605 55.7966 7.32783 55.7966 7.27897L55.7966 2.52042C55.7966 1.83007 56.3562 1.27042 57.0466 1.27042C57.7369 1.27042 58.2966 1.83007 58.2966 2.52042V4.10708L59.6879 2.25525C60.728 0.870968 62.8052 0.870973 63.8452 2.25525L69.0729 9.21297C69.5705 9.87528 69.437 10.8156 68.7747 11.3132C68.1124 11.8108 67.1721 11.6773 66.6744 11.015Z" fill="#684F3F"/>
<path fill-rule="evenodd" clip-rule="evenodd" d="M12.9078 11.015L7.99999 4.48294L3.09213 11.015C2.59451 11.6773 1.65419 11.8108 0.991877 11.3132C0.329563 10.8156 0.196058 9.87528 0.693685 9.21297L2.03823 7.42345C2.03277 7.37605 2.02997 7.32783 2.02997 7.27897L2.02997 2.52042C2.02997 1.83007 2.58961 1.27042 3.27997 1.27042C3.97032 1.27042 4.52997 1.83007 4.52997 2.52042V4.10708L5.92133 2.25525C6.96141 0.870968 9.03857 0.870973 10.0786 2.25525L15.3063 9.21297C15.8039 9.87528 15.6704 10.8156 15.0081 11.3132C14.3458 11.8108 13.4055 11.6773 12.9078 11.015Z" fill="#684F3F"/>
<path d="M1.9147 18.1866C1.67721 18.1708 1.43973 18.1391 1.20225 18.0915C0.979612 18.028 0.779237 17.9487 0.601125 17.8536C0.423014 17.7426 0.274588 17.5919 0.155847 17.4016C0.0519491 17.2113 0 16.9575 0 16.6403C0 16.3231 0.0964769 16.0456 0.289431 15.8077C0.408172 15.6808 0.556598 15.5856 0.734709 15.5222C0.91282 15.4587 1.08351 15.4112 1.24678 15.3794C1.41005 15.3477 1.55105 15.3319 1.66979 15.3319C1.80338 15.3319 1.87759 15.3319 1.89243 15.3319L14.0708 15.3557C14.4567 15.3557 14.8055 15.3636 15.1172 15.3794C15.4437 15.3794 15.7332 15.4905 15.9855 15.7125C16.2972 16.0138 16.453 16.3548 16.453 16.7355C16.453 16.9734 16.3862 17.1954 16.2527 17.4016C16.1191 17.5919 15.941 17.7267 15.7183 17.806C15.4215 17.9329 15.1098 18.0201 14.7832 18.0677C14.4715 18.1153 14.1598 18.147 13.8482 18.1629C12.7646 18.2104 11.696 18.2263 10.6421 18.2104C9.58832 18.1946 8.56418 18.1866 7.56973 18.1866C6.50106 18.1866 5.45466 18.1946 4.43052 18.2104C3.42122 18.2263 2.58261 18.2184 1.9147 18.1866Z" fill="#684F3F"/>
<path d="M30.7753 16.902C30.7753 17.2985 30.7605 17.6157 30.7308 17.8536C30.716 18.0915 30.6492 18.3928 30.5304 18.7576C30.4562 18.9955 30.3449 19.1937 30.1965 19.3523C30.048 19.5109 29.8106 19.5902 29.484 19.5902C29.395 19.5902 29.2836 19.5744 29.1501 19.5427C29.0165 19.5268 28.9126 19.4872 28.8384 19.4237C28.6899 19.3286 28.5712 19.1779 28.4821 18.9717C28.4079 18.7497 28.3486 18.5197 28.304 18.2818C28.2595 18.0439 28.2298 17.8139 28.215 17.5919C28.215 17.3699 28.215 17.1954 28.215 17.0685V11.359L27.2354 11.3352C27.1018 11.3352 26.9534 11.3193 26.7901 11.2876C26.6417 11.24 26.4932 11.1766 26.3448 11.0973C26.2112 11.0021 26.0925 10.8832 25.9886 10.7404C25.8847 10.5818 25.8253 10.3836 25.8105 10.1457C25.7808 9.8602 25.7956 9.55886 25.855 9.24167C25.9292 8.92447 26.137 8.67864 26.4784 8.50418C26.612 8.42488 26.7604 8.3773 26.9237 8.36144C27.1018 8.32972 27.2651 8.32179 27.4135 8.33765L28.215 8.31386V2.81841C28.215 2.61223 28.215 2.40605 28.215 2.19987C28.215 1.97783 28.2372 1.76373 28.2818 1.55755C28.3115 1.47825 28.3337 1.40688 28.3486 1.34344C28.3782 1.28 28.4079 1.20863 28.4376 1.12933C28.5267 0.970731 28.6157 0.851782 28.7048 0.772482C28.7938 0.677323 28.92 0.598024 29.0833 0.534584C29.1575 0.502865 29.2317 0.487005 29.3059 0.487005C29.395 0.471145 29.4766 0.463214 29.5508 0.463214C29.8031 0.463214 30.0035 0.526654 30.1519 0.653533C30.3152 0.780413 30.4562 0.954872 30.575 1.17691C30.6343 1.27207 30.6714 1.40688 30.6863 1.58134C30.716 1.7558 30.7382 1.93819 30.7531 2.1285C30.7679 2.30296 30.7753 2.46156 30.7753 2.6043C30.7753 2.73118 30.7753 2.81048 30.7753 2.8422V16.902ZM34.3153 18.9241C34.2262 19.1303 34.0852 19.3048 33.8923 19.4475C33.729 19.5585 33.5806 19.622 33.447 19.6378C33.3283 19.6695 33.1724 19.6616 32.9795 19.614C32.7568 19.5665 32.5713 19.4634 32.4229 19.3048C32.2893 19.162 32.1854 18.9955 32.1112 18.8052C32.0369 18.6149 31.985 18.4087 31.9553 18.1866C31.9256 17.9646 31.9108 17.7505 31.9108 17.5443V3.0801C31.9108 2.90564 31.9108 2.70739 31.9108 2.48535C31.9108 2.24745 31.9256 2.02542 31.9553 1.81924C31.985 1.5972 32.0221 1.39102 32.0666 1.2007C32.126 1.01038 32.2076 0.859712 32.3115 0.748693C32.4748 0.590094 32.6232 0.494935 32.7568 0.463214C32.9052 0.415635 33.0834 0.391846 33.2911 0.391846C33.5435 0.391846 33.7587 0.471145 33.9368 0.629744C34.1149 0.772483 34.2485 0.970731 34.3376 1.22449C34.4711 1.55755 34.5453 1.89854 34.5602 2.24745C34.575 2.59637 34.5899 2.95322 34.6047 3.318V3.43694C34.6344 4.6423 34.6418 5.87937 34.627 7.14816C34.6121 8.40109 34.6047 9.59058 34.6047 10.7166V16.6641C34.6047 17.0765 34.5899 17.4729 34.5602 17.8536C34.5453 18.2342 34.4637 18.5911 34.3153 18.9241ZM27.1908 3.98411C27.1612 4.04755 27.0795 4.10306 26.9459 4.15064C26.6936 4.27752 26.4561 4.3251 26.2335 4.29338C26.0109 4.26166 25.7659 4.27752 25.4988 4.34096C25.5285 4.563 25.5433 4.76918 25.5433 4.95949C25.5582 5.13395 25.5656 5.28462 25.5656 5.4115V15.6173C25.5656 15.6015 25.6175 15.6015 25.7214 15.6173C25.8253 15.6332 25.9366 15.657 26.0554 15.6887C26.189 15.7046 26.3077 15.7284 26.4116 15.7601C26.5303 15.7918 26.6046 15.8077 26.6342 15.8077C26.9608 15.8711 27.2057 15.9742 27.369 16.1169C27.5322 16.2438 27.5916 16.5372 27.5471 16.9972C27.5174 17.3778 27.4506 17.6633 27.3467 17.8536C27.2428 18.028 27.1018 18.147 26.9237 18.2104C26.7604 18.258 26.5674 18.2818 26.3448 18.2818C26.137 18.2659 25.8995 18.258 25.6324 18.258C25.291 18.2739 24.9496 18.2818 24.6082 18.2818C24.2668 18.2659 23.9329 18.258 23.6063 18.258C23.3392 18.258 23.1091 18.258 22.9162 18.258C22.7381 18.258 22.5599 18.258 22.3818 18.258C22.2037 18.258 22.0182 18.2659 21.8252 18.2818C21.6471 18.2818 21.4319 18.2818 21.1796 18.2818C20.8234 18.2818 20.4671 18.2818 20.1109 18.2818C19.7695 18.2818 19.4207 18.2739 19.0645 18.258C18.9012 18.258 18.7157 18.2422 18.5079 18.2104C18.3001 18.1787 18.1072 18.1232 17.9291 18.0439C17.7509 17.9487 17.5951 17.8219 17.4615 17.6633C17.3279 17.5047 17.2463 17.2985 17.2166 17.0447C17.1869 16.68 17.2315 16.4103 17.3502 16.2359C17.4838 16.0456 17.6545 15.9187 17.8623 15.8552C18.0849 15.7759 18.315 15.7363 18.5524 15.7363C18.8048 15.7204 19.0274 15.6966 19.2204 15.6649C19.2204 15.5222 19.2129 15.3081 19.1981 15.0226C19.1981 14.7371 19.1981 14.4437 19.1981 14.1424C19.1981 13.8252 19.1981 13.5318 19.1981 13.2621C19.1981 12.9767 19.1981 12.7626 19.1981 12.6198V5.74456C19.1981 5.69698 19.1833 5.53838 19.1536 5.26876C19.1387 4.99914 19.1387 4.68988 19.1536 4.34096C18.9458 4.3251 18.7528 4.31717 18.5747 4.31717C18.4114 4.31717 18.2482 4.29338 18.0849 4.2458C17.9365 4.19822 17.7955 4.11892 17.6619 4.0079C17.5431 3.88102 17.4318 3.69863 17.3279 3.46074C17.1647 3.09596 17.1572 2.7629 17.3057 2.46156C17.4541 2.14436 17.6767 1.92232 17.9736 1.79545C18.2853 1.66857 18.5895 1.58927 18.8864 1.55755C19.1981 1.52583 19.5172 1.50997 19.8437 1.50997C20.3781 1.50997 20.8827 1.50997 21.3577 1.50997C21.8327 1.50997 22.2928 1.5179 22.7381 1.53376C23.1982 1.53376 23.6657 1.53376 24.1407 1.53376C24.6156 1.53376 25.1277 1.53376 25.6769 1.53376C25.9292 1.53376 26.2112 1.57341 26.5229 1.65271C26.8346 1.71615 27.0869 1.87475 27.2799 2.1285C27.3689 2.25538 27.4357 2.40605 27.4803 2.58051C27.5396 2.73911 27.5619 2.90564 27.5471 3.0801C27.5471 3.25456 27.5174 3.42902 27.458 3.60347C27.3986 3.76207 27.3096 3.88895 27.1908 3.98411ZM21.9366 4.34096C21.8475 4.3251 21.7881 4.35682 21.7584 4.43612C21.7436 4.49956 21.7362 4.58679 21.7362 4.69781C21.7213 4.85641 21.7065 5.05465 21.6917 5.29255C21.6917 5.53045 21.6991 5.76042 21.7139 5.98246L21.7362 15.1653C21.7362 15.2129 21.7436 15.3001 21.7584 15.427C21.7881 15.538 21.8623 15.6015 21.9811 15.6173H22.983V6.43447C22.983 6.43447 22.983 6.3631 22.983 6.22036C22.983 6.06176 22.983 5.87937 22.983 5.67319C22.983 5.46701 22.9755 5.26876 22.9607 5.07844C22.9607 4.87227 22.9533 4.7216 22.9384 4.62644C22.9384 4.57886 22.931 4.53128 22.9162 4.4837C22.9162 4.42026 22.8716 4.37268 22.7826 4.34096H21.9366Z" fill="#684F3F"/>
<path d="M40.8849 0.605954C41.0778 0.605954 41.2634 0.613884 41.4415 0.629744C41.6196 0.645604 41.7977 0.669394 41.9758 0.701114C42.5398 0.796273 43.0371 1.07382 43.4675 1.53376C43.8237 1.94612 44.1131 2.42191 44.3358 2.96115C44.5733 3.48452 44.7588 4.03962 44.8924 4.62644C45.026 5.21325 45.1224 5.81593 45.1818 6.43447C45.2412 7.03714 45.2857 7.62396 45.3154 8.19491C45.3451 8.92447 45.3525 9.65402 45.3377 10.3836C45.3228 11.1131 45.2783 11.8348 45.2041 12.5485C45.1299 13.2939 45.0185 14.0472 44.8701 14.8085C44.7365 15.5539 44.4842 16.2279 44.1131 16.8306C43.8014 17.3381 43.4155 17.7584 42.9554 18.0915C42.4953 18.4087 42.0129 18.6228 41.5083 18.7338C41.0481 18.829 40.5806 18.8448 40.1056 18.7814C39.6307 18.718 39.178 18.5514 38.7475 18.2818C38.3468 18.028 38.0054 17.7108 37.7234 17.3302C37.4562 16.9496 37.2188 16.5055 37.011 15.998C36.7141 15.2367 36.5434 14.4516 36.4989 13.6428C36.4395 12.9767 36.395 12.3106 36.3653 11.6444C36.3505 10.9783 36.343 10.3122 36.343 9.64609C36.343 8.75794 36.3876 7.86979 36.4766 6.98163C36.5063 6.61685 36.536 6.26001 36.5657 5.91109C36.5954 5.54631 36.6399 5.18946 36.6993 4.84055C36.7586 4.55507 36.8106 4.28545 36.8551 4.03169C36.8996 3.77793 36.9813 3.51624 37.1 3.24663C37.2188 2.97701 37.3449 2.72325 37.4785 2.48535C37.6269 2.24745 37.7976 2.03334 37.9906 1.84303C38.3171 1.49411 38.6807 1.22449 39.0815 1.03417C39.4822 0.843853 39.8978 0.716973 40.3283 0.653533C40.4173 0.637674 40.5064 0.629744 40.5954 0.629744C40.6993 0.629744 40.7958 0.621814 40.8849 0.605954ZM51.6829 17.6395C51.6532 17.8298 51.6309 18.0201 51.6161 18.2104C51.6012 18.3849 51.5641 18.5673 51.5048 18.7576C51.4751 18.821 51.4528 18.8766 51.438 18.9241C51.4231 18.9717 51.4009 19.0272 51.3712 19.0907C51.2673 19.3127 51.1337 19.4872 50.9704 19.614C50.629 19.8361 50.2506 19.8916 49.835 19.7806C49.5975 19.733 49.4045 19.6378 49.2561 19.4951C49.1225 19.3682 49.0186 19.2017 48.9444 18.9955C48.885 18.8052 48.8331 18.6149 48.7886 18.4245C48.7589 18.2342 48.744 18.0677 48.744 17.925C48.744 17.7822 48.744 17.7029 48.744 17.6871V3.29421C48.744 3.10389 48.744 2.89771 48.744 2.67567C48.744 2.45363 48.7589 2.23159 48.7886 2.00955C48.8182 1.78752 48.8628 1.58134 48.9221 1.39102C48.9815 1.2007 49.0632 1.05003 49.1671 0.939012C49.3303 0.764553 49.501 0.661463 49.6791 0.629744C49.8572 0.582164 50.0502 0.558374 50.258 0.558374C50.5103 0.558374 50.7404 0.637673 50.9482 0.796272C51.1708 0.939011 51.3266 1.14519 51.4157 1.41481C51.5493 1.74787 51.6235 2.09678 51.6383 2.46156C51.6532 2.82634 51.668 3.19112 51.6829 3.55589V3.67484C51.7126 4.89606 51.72 6.14899 51.7051 7.43364C51.6903 8.71829 51.6829 9.93157 51.6829 11.0735V16.783C51.6829 16.9258 51.6829 17.0685 51.6829 17.2113C51.6977 17.354 51.6977 17.4967 51.6829 17.6395ZM40.8181 15.5698C41.1001 15.5698 41.3747 15.4746 41.6418 15.2843C41.8942 15.094 42.0723 14.8402 42.1762 14.523C42.2801 14.2058 42.3691 13.8569 42.4433 13.4763C42.5621 12.7467 42.6289 11.9696 42.6437 11.1449C42.6586 10.3201 42.6511 9.52714 42.6215 8.76587C42.6215 8.46453 42.614 8.14733 42.5992 7.81428C42.5844 7.46536 42.5547 7.12437 42.5101 6.79131C42.4805 6.45825 42.4285 6.14106 42.3543 5.83972C42.2801 5.52252 42.1762 5.24497 42.0426 5.00707C41.8942 4.73746 41.7161 4.53128 41.5083 4.38854C41.3005 4.2458 41.0778 4.19029 40.8403 4.22201C40.588 4.25373 40.358 4.34889 40.1502 4.50749C39.9424 4.66609 39.7717 4.90399 39.6381 5.22118L39.4377 5.72077C39.3487 6.02211 39.2819 6.3393 39.2374 6.67236C39.1928 6.98956 39.1557 7.30676 39.126 7.62396C39.0963 7.94115 39.0741 8.26628 39.0592 8.59934C39.0444 8.9324 39.037 9.25753 39.037 9.57472C39.0518 9.89192 39.0444 10.2012 39.0147 10.5025C38.9999 10.8039 39.0073 11.1131 39.037 11.4303C39.0667 11.8427 39.1038 12.2868 39.1483 12.7626C39.2077 13.2384 39.2967 13.6904 39.4155 14.1186C39.5342 14.5309 39.7049 14.8799 39.9275 15.1653C40.1502 15.435 40.447 15.5698 40.8181 15.5698Z" fill="#684F3F"/>
<path d="M55.4872 18.1866C55.2497 18.1708 55.0122 18.1391 54.7748 18.0915C54.5521 18.028 54.3518 17.9487 54.1736 17.8536C53.9955 17.7426 53.8471 17.5919 53.7284 17.4016C53.6245 17.2113 53.5725 16.9575 53.5725 16.6403C53.5725 16.3231 53.669 16.0456 53.8619 15.8077C53.9807 15.6808 54.1291 15.5856 54.3072 15.5222C54.4853 15.4587 54.656 15.4112 54.8193 15.3794C54.9826 15.3477 55.1236 15.3319 55.2423 15.3319C55.3759 15.3319 55.4501 15.3319 55.465 15.3319L67.6433 15.3557C68.0292 15.3557 68.378 15.3636 68.6897 15.3794C69.0163 15.3794 69.3057 15.4905 69.558 15.7125C69.8697 16.0138 70.0256 16.3548 70.0256 16.7355C70.0256 16.9734 69.9588 17.1954 69.8252 17.4016C69.6916 17.5919 69.5135 17.7267 69.2908 17.806C68.994 17.9329 68.6823 18.0201 68.3558 18.0677C68.0441 18.1153 67.7324 18.147 67.4207 18.1629C66.3372 18.2104 65.2685 18.2263 64.2147 18.2104C63.1608 18.1946 62.1367 18.1866 61.1423 18.1866C60.0736 18.1866 59.0272 18.1946 58.003 18.2104C56.9937 18.2263 56.1551 18.2184 55.4872 18.1866Z" fill="#684F3F"/>
<path d="M74.2178 8.19491H76.5777C76.741 8.19491 76.8969 8.21077 77.0453 8.24249C77.2086 8.27421 77.357 8.32972 77.4906 8.40902C77.6984 8.55176 77.8319 8.75794 77.8913 9.02756C77.9507 9.29718 77.9655 9.55886 77.9358 9.81262C77.9358 9.92364 77.9284 10.0426 77.9136 10.1695C77.9136 10.2963 77.8765 10.4074 77.8023 10.5025C77.639 10.7404 77.4683 10.8911 77.2902 10.9545C77.1269 11.0021 76.9488 11.0259 76.7559 11.0259H74.24C74.24 11.3272 74.24 11.6286 74.24 11.9299C74.24 12.2154 74.24 12.4771 74.24 12.715C74.24 12.937 74.2326 13.1194 74.2178 13.2621C74.2178 13.4049 74.2178 13.4763 74.2178 13.4763V14.3089C74.2178 14.5309 74.2326 14.7213 74.2623 14.8799C74.292 15.0385 74.3217 15.1257 74.3514 15.1415C74.4404 15.205 74.5592 15.2526 74.7076 15.2843C74.856 15.316 75.0638 15.3319 75.331 15.3319C75.4349 15.3319 75.6352 15.3319 75.9321 15.3319C76.2289 15.3319 76.5332 15.3319 76.8449 15.3319C77.1566 15.3319 77.4312 15.3319 77.6687 15.3319C77.921 15.316 78.062 15.3081 78.0917 15.3081H78.4257C78.6483 15.3081 78.8338 15.316 78.9823 15.3319C79.1307 15.3477 79.3162 15.3953 79.5388 15.4746C79.5982 15.4905 79.6724 15.5301 79.7615 15.5936C79.9396 15.7363 80.0658 15.9266 80.14 16.1645C80.229 16.3865 80.2661 16.6165 80.2513 16.8544C80.2364 17.0923 80.1771 17.3223 80.0732 17.5443C79.9693 17.7505 79.8209 17.9091 79.6279 18.0201C79.3311 18.2104 79.049 18.3373 78.7819 18.4008C78.5147 18.4642 78.2327 18.4959 77.9358 18.4959H77.0676C76.6817 18.5118 76.3328 18.5118 76.0211 18.4959C75.7243 18.4801 75.3829 18.4801 74.997 18.4959H74.6408C74.4181 18.4959 74.1732 18.488 73.9061 18.4721C73.6389 18.4563 73.3792 18.4166 73.1268 18.3532C72.8745 18.2897 72.637 18.2025 72.4144 18.0915C72.2066 17.9646 72.0285 17.806 71.8801 17.6157C71.7465 17.4412 71.6426 17.2033 71.5684 16.902C71.4942 16.6007 71.4422 16.3072 71.4125 16.0218C71.3977 15.7204 71.3903 15.4587 71.3903 15.2367C71.3903 15.0147 71.3903 14.8957 71.3903 14.8799V3.57968C71.3903 3.56382 71.3903 3.50039 71.3903 3.38937C71.3903 3.26249 71.3977 3.12768 71.4125 2.98494C71.4274 2.82634 71.4422 2.67567 71.4571 2.53293C71.4867 2.37433 71.5238 2.25538 71.5684 2.17608C71.6871 1.95404 71.8059 1.79545 71.9246 1.70029C72.0582 1.58927 72.2289 1.5179 72.4367 1.48618C72.496 1.47032 72.5628 1.46239 72.637 1.46239C72.7261 1.46239 72.8077 1.45446 72.8819 1.4386C72.971 1.4386 73.0675 1.43067 73.1714 1.41481H77.4238C77.498 1.41481 77.5722 1.42274 77.6464 1.4386C77.7206 1.4386 77.7874 1.43067 77.8468 1.41481H77.8913C78.0249 1.41481 78.1511 1.42274 78.2698 1.4386C78.4034 1.45446 78.537 1.48618 78.6705 1.53376C78.7893 1.56548 78.908 1.60513 79.0268 1.65271C79.1604 1.68443 79.2717 1.76373 79.3607 1.8906C79.5389 2.11264 79.6427 2.3664 79.6724 2.65188C79.7021 2.77876 79.717 2.89771 79.717 3.00873C79.7318 3.10389 79.7244 3.21491 79.6947 3.34179C79.665 3.65898 79.5537 3.94446 79.3607 4.19822C79.1678 4.43612 78.9155 4.55507 78.6038 4.55507H74.2178V8.19491ZM79.7837 10.8832C79.6502 10.8832 79.5092 10.8673 79.3607 10.8356C79.2272 10.788 79.0936 10.7166 78.96 10.6215C78.8412 10.5263 78.7374 10.3994 78.6483 10.2408C78.5592 10.0822 78.5073 9.88399 78.4924 9.64609C78.4628 9.36062 78.4776 9.06721 78.537 8.76587C78.6112 8.46453 78.819 8.22663 79.1604 8.05217C79.2939 7.97287 79.4572 7.92529 79.6502 7.90943C79.858 7.89358 80.0361 7.89358 80.1845 7.90943H81.0305V2.81841C81.0305 2.61223 81.0305 2.40605 81.0305 2.19987C81.0305 1.97783 81.0528 1.76373 81.0973 1.55755C81.127 1.47825 81.1493 1.40688 81.1641 1.34344C81.1938 1.28 81.2235 1.20863 81.2532 1.12933C81.3422 0.970731 81.4313 0.851782 81.5203 0.772482C81.6094 0.677323 81.7355 0.598024 81.8988 0.534584C81.973 0.502865 82.0472 0.487005 82.1215 0.487005C82.2105 0.471145 82.2922 0.463214 82.3664 0.463214C82.8562 0.463214 83.2272 0.701113 83.4796 1.17691C83.5389 1.27207 83.5835 1.40688 83.6131 1.58134C83.6428 1.7558 83.6651 1.93819 83.6799 2.1285C83.6948 2.30296 83.7022 2.46156 83.7022 2.6043C83.7022 2.73118 83.7022 2.81048 83.7022 2.8422V16.902C83.7022 17.2985 83.6874 17.6157 83.6577 17.8536C83.628 18.0915 83.5538 18.3928 83.435 18.7576C83.3608 18.9955 83.2346 19.1937 83.0565 19.3523C82.8784 19.5109 82.6261 19.5902 82.2996 19.5902C82.2105 19.5902 82.0992 19.5744 81.9656 19.5427C81.832 19.5268 81.7281 19.4872 81.6539 19.4237C81.5055 19.3286 81.3867 19.1779 81.2977 18.9717C81.2235 18.7497 81.1641 18.5197 81.1196 18.2818C81.0751 18.0439 81.0454 17.8139 81.0305 17.5919C81.0305 17.3699 81.0305 17.1954 81.0305 17.0685V10.9545L79.7837 10.8832ZM87.732 3.43694C87.7617 4.6423 87.7691 5.87937 87.7542 7.14816C87.7394 8.40109 87.732 9.59058 87.732 10.7166V16.6641C87.732 17.0765 87.7171 17.4729 87.6874 17.8536C87.6726 18.2342 87.591 18.5911 87.4425 18.9241C87.3535 19.1303 87.2125 19.3048 87.0195 19.4475C86.8563 19.5585 86.6781 19.622 86.4852 19.6378C86.2922 19.6695 86.0993 19.6616 85.9063 19.614C85.6837 19.5665 85.5056 19.4634 85.372 19.3048C85.2384 19.162 85.1345 18.9955 85.0603 18.8052C85.0009 18.6149 84.9638 18.4087 84.949 18.1866C84.9341 17.9646 84.9267 17.7505 84.9267 17.5443V3.0801C84.9267 2.90564 84.9267 2.70739 84.9267 2.48535C84.9267 2.24745 84.9416 2.02542 84.9712 1.81924C85.0009 1.5972 85.038 1.39102 85.0826 1.2007C85.1419 1.01038 85.2236 0.859712 85.3275 0.748693C85.4907 0.590094 85.6466 0.494935 85.795 0.463214C85.9434 0.415635 86.1215 0.391846 86.3293 0.391846C86.5817 0.391846 86.8117 0.471145 87.0195 0.629744C87.2273 0.772483 87.3757 0.970731 87.4648 1.22449C87.5984 1.55755 87.6652 1.92233 87.6652 2.31882C87.68 2.71532 87.7023 3.08803 87.732 3.43694Z" fill="#684F3F"/>
<path d="M94.4574 0.605954C94.6504 0.605954 94.8359 0.613884 95.014 0.629744C95.1921 0.645604 95.3702 0.669394 95.5483 0.701114C96.1124 0.796273 96.6096 1.07382 97.04 1.53376C97.3962 1.94612 97.6857 2.42191 97.9083 2.96115C98.1458 3.48452 98.3313 4.03962 98.4649 4.62644C98.5985 5.21325 98.695 5.81593 98.7543 6.43447C98.8137 7.03714 98.8582 7.62396 98.8879 8.19491C98.9176 8.92447 98.925 9.65402 98.9102 10.3836C98.8953 11.1131 98.8508 11.8348 98.7766 12.5485C98.7024 13.2939 98.5911 14.0472 98.4426 14.8085C98.3091 15.5539 98.0567 16.2279 97.6857 16.8306C97.374 17.3381 96.9881 17.7584 96.5279 18.0915C96.0678 18.4087 95.5854 18.6228 95.0808 18.7338C94.6207 18.829 94.1531 18.8448 93.6782 18.7814C93.2032 18.718 92.7505 18.5514 92.3201 18.2818C91.9193 18.028 91.5779 17.7108 91.2959 17.3302C91.0288 16.9496 90.7913 16.5055 90.5835 15.998C90.2866 15.2367 90.1159 14.4516 90.0714 13.6428C90.012 12.9767 89.9675 12.3106 89.9378 11.6444C89.923 10.9783 89.9156 10.3122 89.9156 9.64609C89.9156 8.75794 89.9601 7.86979 90.0491 6.98163C90.0788 6.61685 90.1085 6.26001 90.1382 5.91109C90.1679 5.54631 90.2124 5.18946 90.2718 4.84055C90.3312 4.55507 90.3831 4.28545 90.4276 4.03169C90.4722 3.77793 90.5538 3.51624 90.6725 3.24663C90.7913 2.97701 90.9174 2.72325 91.051 2.48535C91.1994 2.24745 91.3701 2.03334 91.5631 1.84303C91.8896 1.49411 92.2533 1.22449 92.654 1.03417C93.0548 0.843853 93.4704 0.716973 93.9008 0.653533C93.9899 0.637674 94.0789 0.629744 94.168 0.629744C94.2719 0.629744 94.3683 0.621814 94.4574 0.605954ZM105.255 17.6395C105.226 17.8298 105.203 18.0201 105.189 18.2104C105.174 18.3849 105.137 18.5673 105.077 18.7576C105.048 18.821 105.025 18.8766 105.01 18.9241C104.996 18.9717 104.973 19.0272 104.944 19.0907C104.84 19.3127 104.706 19.4872 104.543 19.614C104.202 19.8361 103.823 19.8916 103.407 19.7806C103.17 19.733 102.977 19.6378 102.829 19.4951C102.695 19.3682 102.591 19.2017 102.517 18.9955C102.458 18.8052 102.406 18.6149 102.361 18.4245C102.331 18.2342 102.317 18.0677 102.317 17.925C102.317 17.7822 102.317 17.7029 102.317 17.6871V3.29421C102.317 3.10389 102.317 2.89771 102.317 2.67567C102.317 2.45363 102.331 2.23159 102.361 2.00955C102.391 1.78752 102.435 1.58134 102.495 1.39102C102.554 1.2007 102.636 1.05003 102.74 0.939012C102.903 0.764553 103.074 0.661463 103.252 0.629744C103.43 0.582164 103.623 0.558374 103.83 0.558374C104.083 0.558374 104.313 0.637673 104.521 0.796272C104.743 0.939011 104.899 1.14519 104.988 1.41481C105.122 1.74787 105.196 2.09678 105.211 2.46156C105.226 2.82634 105.241 3.19112 105.255 3.55589V3.67484C105.285 4.89606 105.292 6.14899 105.278 7.43364C105.263 8.71829 105.255 9.93157 105.255 11.0735V16.783C105.255 16.9258 105.255 17.0685 105.255 17.2113C105.27 17.354 105.27 17.4967 105.255 17.6395ZM94.3906 15.5698C94.6726 15.5698 94.9472 15.4746 95.2144 15.2843C95.4667 15.094 95.6448 14.8402 95.7487 14.523C95.8526 14.2058 95.9417 13.8569 96.0159 13.4763C96.1346 12.7467 96.2014 11.9696 96.2162 11.1449C96.2311 10.3201 96.2237 9.52714 96.194 8.76587C96.194 8.46453 96.1866 8.14733 96.1717 7.81428C96.1569 7.46536 96.1272 7.12437 96.0827 6.79131C96.053 6.45825 96.001 6.14106 95.9268 5.83972C95.8526 5.52252 95.7487 5.24497 95.6151 5.00707C95.4667 4.73746 95.2886 4.53128 95.0808 4.38854C94.873 4.2458 94.6504 4.19029 94.4129 4.22201C94.1605 4.25373 93.9305 4.34889 93.7227 4.50749C93.5149 4.66609 93.3442 4.90399 93.2106 5.22118L93.0102 5.72077C92.9212 6.02211 92.8544 6.3393 92.8099 6.67236C92.7653 6.98956 92.7282 7.30676 92.6985 7.62396C92.6689 7.94115 92.6466 8.26628 92.6318 8.59934C92.6169 8.9324 92.6095 9.25753 92.6095 9.57472C92.6243 9.89192 92.6169 10.2012 92.5872 10.5025C92.5724 10.8039 92.5798 11.1131 92.6095 11.4303C92.6392 11.8427 92.6763 12.2868 92.7208 12.7626C92.7802 13.2384 92.8692 13.6904 92.988 14.1186C93.1067 14.5309 93.2774 14.8799 93.5 15.1653C93.7227 15.435 94.0195 15.5698 94.3906 15.5698Z" fill="#684F3F"/>
<path d="M122.507 16.8306C122.507 16.8306 122.552 16.8465 122.641 16.8782C122.745 16.9099 122.856 16.9654 122.975 17.0447C123.093 17.1082 123.205 17.2033 123.309 17.3302C123.413 17.4412 123.479 17.576 123.509 17.7346C123.583 18.3373 123.487 18.8052 123.22 19.1382C123.041 19.3603 122.849 19.4951 122.641 19.5427C122.433 19.5902 122.322 19.614 122.307 19.614H110.707C110.099 19.614 109.624 19.5109 109.282 19.3048C108.941 19.1145 108.77 18.8369 108.77 18.4721V15.6411C108.77 15.546 108.763 15.427 108.748 15.2843C108.748 15.1415 108.748 14.9909 108.748 14.8323C108.748 14.6578 108.748 14.4992 108.748 14.3565C108.763 14.2137 108.77 14.0948 108.77 13.9996C108.8 13.6666 108.948 13.397 109.216 13.1908C109.483 12.9846 109.787 12.8815 110.128 12.8815C110.203 12.8815 110.292 12.8894 110.396 12.9053C110.514 12.9053 110.611 12.9212 110.685 12.9529C110.878 13.0163 111.034 13.1273 111.153 13.2859C111.271 13.4287 111.36 13.5952 111.42 13.7855C111.479 13.9758 111.516 14.182 111.531 14.4041C111.546 14.6102 111.561 14.8006 111.576 14.975C111.576 15.0385 111.576 15.1653 111.576 15.3557C111.576 15.5301 111.576 15.7204 111.576 15.9266C111.576 16.1169 111.576 16.2993 111.576 16.4738C111.576 16.6324 111.576 16.7355 111.576 16.783C111.62 16.7989 111.739 16.8227 111.932 16.8544C112.14 16.8703 112.518 16.8782 113.067 16.8782C113.542 16.8782 113.965 16.8703 114.336 16.8544C114.707 16.8386 114.9 16.8306 114.915 16.8306H122.507ZM107.479 11.3352C107.271 11.24 107.123 11.0576 107.034 10.788C106.915 10.4708 106.893 10.1536 106.967 9.83641C107.056 9.51921 107.19 9.21788 107.368 8.9324C107.546 8.64692 107.746 8.3773 107.969 8.12354C108.206 7.86978 108.407 7.63189 108.57 7.40985C108.822 7.07679 109.067 6.74373 109.305 6.41068C109.542 6.07762 109.787 5.73663 110.039 5.38771C110.217 5.11809 110.403 4.8009 110.596 4.43612C110.789 4.07134 110.9 3.71449 110.93 3.36558C110.93 3.27042 110.937 3.15147 110.952 3.00873C110.967 2.85013 110.974 2.69153 110.974 2.53293C110.989 2.35847 111.004 2.19987 111.019 2.05713C111.034 1.9144 111.056 1.79545 111.086 1.70029C111.175 1.38309 111.316 1.16898 111.509 1.05796C111.717 0.931082 112.028 0.867642 112.444 0.867642C112.681 0.867642 112.949 0.915222 113.245 1.01038C113.542 1.08968 113.743 1.25621 113.846 1.50997C113.95 1.79545 113.98 2.1285 113.936 2.50914C113.906 2.87392 113.936 3.20698 114.025 3.50831C114.099 3.74621 114.21 3.99204 114.359 4.2458C114.507 4.49956 114.663 4.75332 114.826 5.00707C115.108 5.43529 115.39 5.90316 115.672 6.41068C115.954 6.90233 116.214 7.32262 116.451 7.67154C116.689 8.00459 116.919 8.35351 117.142 8.71829C117.364 9.06721 117.513 9.44784 117.587 9.8602C117.661 10.2091 117.624 10.5025 117.475 10.7404C117.342 10.9625 117.156 11.129 116.919 11.24C116.681 11.3352 116.422 11.359 116.14 11.3114C115.858 11.2479 115.613 11.1052 115.405 10.8832C114.856 10.2805 114.359 9.63816 113.913 8.95619C113.468 8.25835 113.008 7.57638 112.533 6.91026C112.533 6.91026 112.466 6.98956 112.333 7.14816C112.199 7.30676 112.036 7.51294 111.843 7.7667C111.65 8.02045 111.435 8.298 111.197 8.59934C110.96 8.90068 110.737 9.18616 110.529 9.45578C110.321 9.72539 110.136 9.96329 109.973 10.1695C109.824 10.3598 109.735 10.4787 109.705 10.5263C109.542 10.7325 109.357 10.9149 109.149 11.0735C108.941 11.2321 108.711 11.3431 108.459 11.4065C108.295 11.4383 108.125 11.4541 107.947 11.4541C107.783 11.4541 107.627 11.4145 107.479 11.3352ZM122.596 1.10554C122.641 1.21656 122.678 1.38309 122.708 1.60513C122.737 1.82717 122.759 2.05713 122.774 2.29503C122.789 2.51707 122.797 2.72325 122.797 2.91357C122.797 3.10389 122.797 3.21491 122.797 3.24663V11.4541C122.797 11.47 122.789 11.5334 122.774 11.6444C122.759 11.7396 122.722 11.8585 122.663 12.0013C122.618 12.144 122.544 12.2868 122.44 12.4295C122.351 12.5722 122.233 12.6912 122.084 12.7864C121.876 12.9291 121.661 13.0005 121.438 13.0005C121.142 13.0005 120.882 12.9053 120.659 12.715C120.481 12.604 120.348 12.4454 120.258 12.2392C120.155 12.0489 120.088 11.8585 120.058 11.6682C120.028 11.4779 120.006 11.2955 119.991 11.1211V9.71746H119.257C118.915 9.71746 118.559 9.69367 118.188 9.64609C117.832 9.58265 117.557 9.39234 117.364 9.07514C117.26 8.90068 117.208 8.6945 117.208 8.4566C117.223 8.20284 117.245 7.98873 117.275 7.81428C117.32 7.62396 117.409 7.46536 117.542 7.33848C117.676 7.2116 117.899 7.10851 118.21 7.02921C118.27 7.01335 118.381 7.00542 118.544 7.00542C118.722 6.98956 118.9 6.9737 119.078 6.95784C119.271 6.94198 119.45 6.93405 119.613 6.93405C119.791 6.91819 119.917 6.91026 119.991 6.91026V5.36392C119.769 5.36392 119.516 5.37185 119.234 5.38771C118.967 5.38771 118.707 5.37978 118.455 5.36392C118.218 5.3322 117.995 5.28462 117.787 5.22118C117.594 5.15774 117.453 5.04672 117.364 4.88813C117.32 4.80883 117.283 4.70574 117.253 4.57886C117.238 4.45198 117.223 4.3251 117.208 4.19822C117.208 4.05548 117.216 3.92067 117.231 3.79379C117.245 3.66691 117.26 3.55589 117.275 3.46074C117.32 3.28628 117.409 3.13561 117.542 3.00873C117.676 2.88185 117.899 2.77876 118.21 2.69946C118.255 2.6836 118.344 2.67567 118.477 2.67567C118.626 2.65981 118.789 2.65188 118.967 2.65188C119.145 2.63602 119.323 2.62809 119.502 2.62809C119.694 2.61223 119.858 2.6043 119.991 2.6043C119.976 2.46156 119.976 2.30296 119.991 2.1285C120.006 1.95404 120.028 1.80338 120.058 1.6765C120.103 1.54962 120.14 1.42274 120.169 1.29586C120.199 1.16898 120.266 1.0421 120.37 0.915221C120.503 0.756622 120.681 0.645603 120.904 0.582163C121.142 0.502864 121.394 0.479074 121.661 0.510795C122.136 0.590094 122.448 0.788343 122.596 1.10554Z" fill="#684F3F"/>
</svg>
